<?xml version="1.0" encoding="UTF-8" standalone="no"?>
<!-- Created with Inkscape (http://www.inkscape.org/) -->

<svg
   version="1.1"
   id="svg1"
   width="64"
   height="64"
   viewBox="0 0 64 64"
   xmlns="http://www.w3.org/2000/svg"
   xmlns:svg="http://www.w3.org/2000/svg">
  <defs
     id="defs1" />
  <g
     id="g1">
    <path
       style="fill:#ffffff;stroke:#ffffff;stroke-width:9.09481;stroke-linecap:round;stroke-linejoin:miter;stroke-opacity:1;fill-opacity:1"
       id="path1"
       d="M 50.360656,57.785624 C 47.408938,59.890212 36.710928,52.328803 33.085892,52.296475 29.460857,52.264146 18.629691,59.633553 15.715978,57.476656 12.802265,55.319759 16.687725,42.808743 15.598274,39.351139 14.508823,35.893536 4.153086,27.869757 5.3040301,24.432134 6.4549743,20.99451 19.554331,20.823685 22.506048,18.719097 25.457766,16.614509 29.888734,4.2861344 33.51377,4.3184632 37.138805,4.350792 41.349193,16.756233 44.262906,18.91313 c 2.913713,2.156897 16.007939,2.56132 17.09739,6.018924 1.089451,3.457604 -9.407743,11.295412 -10.558687,14.733036 -1.150944,3.437624 2.510765,16.015946 -0.440953,18.120534 z"
       transform="matrix(0.8799215,-0.00739617,0.00740138,0.87925969,2.4880043,4.7923146)" />
  </g>
</svg>
